<svg width="70" height="78" viewBox="0 0 70 78" fill="none" xmlns="http://www.w3.org/2000/svg">
<path d="M25.1051 67.0102L27.3236 72.0051C27.9832 73.492 29.0595 74.7553 30.422 75.6419C31.7846 76.5285 33.3749 77.0003 35 77C36.6251 77.0003 38.2154 76.5285 39.578 75.6419C40.9405 74.7553 42.0169 73.492 42.6764 72.0051L44.8949 67.0102C45.6847 65.2379 47.0131 63.7603 48.6909 62.788C50.3793 61.8131 52.3326 61.3978 54.2711 61.6016L59.6993 62.18C61.3152 62.3511 62.9459 62.0493 64.3938 61.3111C65.8417 60.5729 67.0445 59.43 67.8565 58.0211C68.6696 56.6131 69.0569 54.9991 68.9715 53.375C68.8862 51.7509 68.3318 50.1864 67.3757 48.8716L64.1618 44.4509C63.0173 42.8651 62.4059 40.9563 62.4156 39C62.4152 37.049 63.0325 35.1481 64.1786 33.5702L67.3926 29.1496C68.3487 27.8347 68.9031 26.2703 68.9884 24.6462C69.0738 23.0221 68.6864 21.4081 67.8734 20C67.0614 18.5911 65.8586 17.4483 64.4107 16.7101C62.9628 15.9719 61.3321 15.67 59.7162 15.8411L54.2879 16.4196C52.3494 16.6234 50.3962 16.2081 48.7078 15.2331C47.0266 14.2554 45.6978 12.77 44.9118 10.9898L42.6764 5.99489C42.0169 4.50805 40.9405 3.24472 39.578 2.35812C38.2154 1.47151 36.6251 0.999735 35 1C33.3749 0.999735 31.7846 1.47151 30.422 2.35812C29.0595 3.24472 27.9832 4.50805 27.3236 5.99489L25.1051 10.9898C24.319 12.77 22.9902 14.2554 21.3091 15.2331C19.6207 16.2081 17.6675 16.6234 15.729 16.4196L10.2838 15.8411C8.66795 15.67 7.03722 15.9719 5.58933 16.7101C4.14145 17.4483 2.93859 18.5911 2.1266 20C1.31358 21.4081 0.926243 23.0221 1.01159 24.6462C1.09694 26.2703 1.65131 27.8347 2.60743 29.1496L5.82138 33.5702C6.96755 35.1481 7.58477 37.049 7.58441 39C7.58477 40.951 6.96755 42.8519 5.82138 44.4298L2.60743 48.8504C1.65131 50.1653 1.09694 51.7297 1.01159 53.3538C0.926243 54.9779 1.31358 56.5919 2.1266 58C2.93939 59.4082 4.14239 60.5504 5.59007 61.2885C7.03775 62.0266 8.66807 62.3289 10.2838 62.1589L15.7121 61.5804C17.6506 61.3766 19.6038 61.7919 21.2922 62.7669C22.9796 63.7419 24.3146 65.2276 25.1051 67.0102Z" stroke="black" stroke-width="2" stroke-linecap="round" stroke-linejoin="round"/>
<path d="M34.9932 50.4C41.2826 50.4 46.3812 45.296 46.3812 39C46.3812 32.704 41.2826 27.6 34.9932 27.6C28.7038 27.6 23.6052 32.704 23.6052 39C23.6052 45.296 28.7038 50.4 34.9932 50.4Z" stroke="black" stroke-width="2" stroke-linecap="round" stroke-linejoin="round"/>
</svg>
