<svg width="20" height="20" viewBox="0 0 20 20" fill="none" xmlns="http://www.w3.org/2000/svg">
<path d="M10 10.6251C7.35834 10.6251 5.20834 8.47508 5.20834 5.83341C5.20834 3.19175 7.35834 1.04175 10 1.04175C12.6417 1.04175 14.7917 3.19175 14.7917 5.83341C14.7917 8.47508 12.6417 10.6251 10 10.6251ZM10 2.29175C9.06138 2.29395 8.16182 2.66779 7.4981 3.33151C6.83439 3.99522 6.46054 4.89478 6.45834 5.83341C6.46054 6.77205 6.83439 7.67161 7.4981 8.33532C8.16182 8.99904 9.06138 9.37288 10 9.37508C10.9386 9.37288 11.8382 8.99904 12.5019 8.33532C13.1656 7.67161 13.5395 6.77205 13.5417 5.83341C13.5395 4.89478 13.1656 3.99522 12.5019 3.33151C11.8382 2.66779 10.9386 2.29395 10 2.29175ZM17.1583 18.9584C16.8167 18.9584 16.5333 18.6751 16.5333 18.3334C16.5333 15.4584 13.6 13.1251 10 13.1251C6.40001 13.1251 3.46667 15.4584 3.46667 18.3334C3.46667 18.6751 3.18334 18.9584 2.84167 18.9584C2.50001 18.9584 2.21667 18.6751 2.21667 18.3334C2.21667 14.7751 5.70834 11.8751 10 11.8751C14.2917 11.8751 17.7833 14.7751 17.7833 18.3334C17.7833 18.6751 17.5 18.9584 17.1583 18.9584Z" fill="#B5AFAF"/>
</svg>
