<svg width="20" height="21" viewBox="0 0 20 21" fill="none" xmlns="http://www.w3.org/2000/svg">
<path d="M18.3084 15.6249C18.3084 15.9249 18.2417 16.2333 18.1 16.5333C17.9584 16.8333 17.775 17.1166 17.5334 17.3833C17.125 17.8333 16.675 18.1583 16.1667 18.3666C15.6667 18.5749 15.125 18.6833 14.5417 18.6833C13.6917 18.6833 12.7834 18.4833 11.825 18.0749C10.8667 17.6666 9.90835 17.1166 8.95835 16.4249C7.99011 15.7167 7.07643 14.9367 6.22502 14.0916C5.38233 13.2433 4.6051 12.3323 3.90002 11.3666C3.21669 10.4166 2.66669 9.4666 2.26669 8.52494C1.86669 7.57494 1.66669 6.6666 1.66669 5.79993C1.66669 5.23327 1.76669 4.6916 1.96669 4.1916C2.16669 3.68327 2.48335 3.2166 2.92502 2.79993C3.45835 2.27493 4.04169 2.0166 4.65835 2.0166C4.89169 2.0166 5.12502 2.0666 5.33335 2.1666C5.55002 2.2666 5.74169 2.4166 5.89169 2.63327L7.82502 5.35827C7.97502 5.5666 8.08335 5.75827 8.15835 5.9416C8.23335 6.1166 8.27502 6.2916 8.27502 6.44993C8.27502 6.64993 8.21669 6.84993 8.10002 7.0416C7.99169 7.23327 7.83335 7.43327 7.63335 7.63327L7.00002 8.2916C6.90835 8.38327 6.86669 8.4916 6.86669 8.62493C6.86669 8.6916 6.87502 8.74993 6.89169 8.8166C6.91669 8.88327 6.94169 8.93327 6.95835 8.98327C7.10835 9.25827 7.36669 9.6166 7.73335 10.0499C8.10835 10.4833 8.50835 10.9249 8.94169 11.3666C9.39169 11.8083 9.82502 12.2166 10.2667 12.5916C10.7 12.9583 11.0584 13.2083 11.3417 13.3583C11.3834 13.3749 11.4334 13.3999 11.4917 13.4249C11.5584 13.4499 11.625 13.4583 11.7 13.4583C11.8417 13.4583 11.95 13.4083 12.0417 13.3166L12.675 12.6916C12.8834 12.4833 13.0834 12.3249 13.275 12.2249C13.4667 12.1083 13.6584 12.0499 13.8667 12.0499C14.025 12.0499 14.1917 12.0833 14.375 12.1583C14.5584 12.2333 14.75 12.3416 14.9584 12.4833L17.7167 14.4416C17.9334 14.5916 18.0834 14.7666 18.175 14.9749C18.2584 15.1833 18.3084 15.3916 18.3084 15.6249Z" stroke="#B5AFAF" stroke-width="1.5" stroke-miterlimit="10"/>
</svg>
