<svg width="20" height="20" viewBox="0 0 20 20" fill="none" xmlns="http://www.w3.org/2000/svg">
<g clip-path="url(#clip0_861_18906)">
<path d="M7.08329 15.8307H6.66663C3.33329 15.8307 1.66663 14.9974 1.66663 10.8307V6.66406C1.66663 3.33073 3.33329 1.66406 6.66663 1.66406H13.3333C16.6666 1.66406 18.3333 3.33073 18.3333 6.66406V10.8307C18.3333 14.1641 16.6666 15.8307 13.3333 15.8307H12.9166C12.6583 15.8307 12.4083 15.9557 12.25 16.1641L11 17.8307C10.45 18.5641 9.54996 18.5641 8.99996 17.8307L7.74996 16.1641C7.61663 15.9807 7.30829 15.8307 7.08329 15.8307Z" stroke="#B5AFAF" stroke-width="1.5" stroke-miterlimit="10" stroke-linecap="round" stroke-linejoin="round"/>
<path d="M13.33 9.16406H13.3383M9.99581 9.16406H10.0041M6.66248 9.16406H6.66914" stroke="#B5AFAF" stroke-width="2" stroke-linecap="round" stroke-linejoin="round"/>
</g>
<defs>
<clipPath id="clip0_861_18906">
<rect width="20" height="20" fill="white"/>
</clipPath>
</defs>
</svg>
