<svg width="20" height="21" viewBox="0 0 20 21" fill="none" xmlns="http://www.w3.org/2000/svg">
<path d="M10.0001 4.92517V17.4252M6.45841 7.42517H4.58341M7.08341 9.92517H4.58341M18.3334 14.3002V4.24184C18.3334 3.24184 17.5167 2.50017 16.5251 2.58351H16.4751C14.7251 2.73351 12.0667 3.62517 10.5834 4.55851L10.4417 4.65017C10.2001 4.80017 9.80008 4.80017 9.55841 4.65017L9.35008 4.52517C7.86675 3.60017 5.21675 2.71684 3.46675 2.57517C2.47508 2.49184 1.66675 3.24184 1.66675 4.23351V14.3002C1.66675 15.1002 2.31675 15.8502 3.11675 15.9502L3.35841 15.9835C5.16675 16.2252 7.95841 17.1418 9.55841 18.0168L9.59175 18.0335C9.81675 18.1585 10.1751 18.1585 10.3917 18.0335C11.9917 17.1502 14.7917 16.2252 16.6084 15.9835L16.8834 15.9502C17.6834 15.8502 18.3334 15.1002 18.3334 14.3002Z" stroke="#B5AFAF" stroke-width="1.5" stroke-linecap="round" stroke-linejoin="round"/>
</svg>
