<svg width="48" height="55" viewBox="0 0 48 55" fill="none" xmlns="http://www.w3.org/2000/svg">
<path d="M24 29.375C16.075 29.375 9.62499 22.925 9.62499 15C9.62499 7.075 16.075 0.625 24 0.625C31.925 0.625 38.375 7.075 38.375 15C38.375 22.925 31.925 29.375 24 29.375ZM24 4.375C21.1841 4.3816 18.4854 5.50314 16.4943 7.49428C14.5031 9.48543 13.3816 12.1841 13.375 15C13.3816 17.8159 14.5031 20.5146 16.4943 22.5057C18.4854 24.4969 21.1841 25.6184 24 25.625C26.8159 25.6184 29.5146 24.4969 31.5057 22.5057C33.4969 20.5146 34.6184 17.8159 34.625 15C34.6184 12.1841 33.4969 9.48543 31.5057 7.49428C29.5146 5.50314 26.8159 4.3816 24 4.375ZM45.475 54.375C44.45 54.375 43.6 53.525 43.6 52.5C43.6 43.875 34.8 36.875 24 36.875C13.2 36.875 4.39999 43.875 4.39999 52.5C4.39999 53.525 3.54999 54.375 2.52499 54.375C1.49999 54.375 0.649994 53.525 0.649994 52.5C0.649994 41.825 11.125 33.125 24 33.125C36.875 33.125 47.35 41.825 47.35 52.5C47.35 53.525 46.5 54.375 45.475 54.375Z" fill="black"/>
</svg>
