<svg width="20" height="20" viewBox="0 0 20 20" fill="none" xmlns="http://www.w3.org/2000/svg">
<path d="M10 10.6224C7.35834 10.6224 5.20834 8.4724 5.20834 5.83073C5.20834 3.18906 7.35834 1.03906 10 1.03906C12.6417 1.03906 14.7917 3.18906 14.7917 5.83073C14.7917 8.4724 12.6417 10.6224 10 10.6224ZM10 2.28906C9.06138 2.29126 8.16182 2.66511 7.4981 3.32882C6.83439 3.99254 6.46054 4.8921 6.45834 5.83073C6.46054 6.76936 6.83439 7.66892 7.4981 8.33263C8.16182 8.99635 9.06138 9.37019 10 9.3724C10.9386 9.37019 11.8382 8.99635 12.5019 8.33263C13.1656 7.66892 13.5395 6.76936 13.5417 5.83073C13.5395 4.8921 13.1656 3.99254 12.5019 3.32882C11.8382 2.66511 10.9386 2.29126 10 2.28906ZM17.1583 18.9557C16.8167 18.9557 16.5333 18.6724 16.5333 18.3307C16.5333 15.4557 13.6 13.1224 10 13.1224C6.40001 13.1224 3.46667 15.4557 3.46667 18.3307C3.46667 18.6724 3.18334 18.9557 2.84167 18.9557C2.50001 18.9557 2.21667 18.6724 2.21667 18.3307C2.21667 14.7724 5.70834 11.8724 10 11.8724C14.2917 11.8724 17.7833 14.7724 17.7833 18.3307C17.7833 18.6724 17.5 18.9557 17.1583 18.9557Z" fill="black"/>
</svg>
