<svg width="20" height="21" viewBox="0 0 20 21" fill="none" xmlns="http://www.w3.org/2000/svg">
<path d="M18.3084 15.6249C18.3084 15.9249 18.2417 16.2333 18.1001 16.5333C17.9584 16.8333 17.7751 17.1166 17.5334 17.3833C17.1251 17.8333 16.6751 18.1583 16.1667 18.3666C15.6667 18.5749 15.1251 18.6833 14.5417 18.6833C13.6917 18.6833 12.7834 18.4833 11.8251 18.0749C10.8667 17.6666 9.90842 17.1166 8.95842 16.4249C7.99017 15.7167 7.07649 14.9367 6.22508 14.0916C5.38239 13.2433 4.60516 12.3323 3.90008 11.3666C3.21675 10.4166 2.66675 9.4666 2.26675 8.52494C1.86675 7.57494 1.66675 6.6666 1.66675 5.79993C1.66675 5.23327 1.76675 4.6916 1.96675 4.1916C2.16675 3.68327 2.48341 3.2166 2.92508 2.79993C3.45841 2.27493 4.04175 2.0166 4.65841 2.0166C4.89175 2.0166 5.12508 2.0666 5.33341 2.1666C5.55008 2.2666 5.74175 2.4166 5.89175 2.63327L7.82508 5.35827C7.97508 5.5666 8.08341 5.75827 8.15841 5.9416C8.23341 6.1166 8.27508 6.2916 8.27508 6.44993C8.27508 6.64993 8.21675 6.84993 8.10008 7.0416C7.99175 7.23327 7.83341 7.43327 7.63341 7.63327L7.00008 8.2916C6.90841 8.38327 6.86675 8.4916 6.86675 8.62493C6.86675 8.6916 6.87508 8.74993 6.89175 8.8166C6.91675 8.88327 6.94175 8.93327 6.95842 8.98327C7.10842 9.25827 7.36675 9.6166 7.73341 10.0499C8.10841 10.4833 8.50841 10.9249 8.94175 11.3666C9.39175 11.8083 9.82508 12.2166 10.2667 12.5916C10.7001 12.9583 11.0584 13.2083 11.3417 13.3583C11.3834 13.3749 11.4334 13.3999 11.4917 13.4249C11.5584 13.4499 11.6251 13.4583 11.7001 13.4583C11.8417 13.4583 11.9501 13.4083 12.0417 13.3166L12.6751 12.6916C12.8834 12.4833 13.0834 12.3249 13.2751 12.2249C13.4667 12.1083 13.6584 12.0499 13.8667 12.0499C14.0251 12.0499 14.1917 12.0833 14.3751 12.1583C14.5584 12.2333 14.7501 12.3416 14.9584 12.4833L17.7167 14.4416C17.9334 14.5916 18.0834 14.7666 18.1751 14.9749C18.2584 15.1833 18.3084 15.3916 18.3084 15.6249Z" stroke="black" stroke-width="1.5" stroke-miterlimit="10"/>
</svg>
