<svg width="20" height="21" viewBox="0 0 20 21" fill="none" xmlns="http://www.w3.org/2000/svg">
<path d="M8.42493 9.6416H6.2166C5.6916 9.6416 5.2666 10.0666 5.2666 10.5916V14.8583H8.42493V9.6416Z" stroke="#B5AFAF" stroke-width="1.5" stroke-miterlimit="10" stroke-linecap="round" stroke-linejoin="round"/>
<path d="M10.6341 5.8501H9.36748C8.84248 5.8501 8.41748 6.2751 8.41748 6.8001V14.8501H11.5758V6.8001C11.5758 6.2751 11.1591 5.8501 10.6341 5.8501ZM13.79 11.0584H11.5816V14.8501H14.74V12.0084C14.7316 11.4834 14.3066 11.0584 13.79 11.0584Z" stroke="#B5AFAF" stroke-width="1.5" stroke-miterlimit="10" stroke-linecap="round" stroke-linejoin="round"/>
<path d="M7.50008 18.6833H12.5001C16.6667 18.6833 18.3334 17.0166 18.3334 12.8499V7.84993C18.3334 3.68327 16.6667 2.0166 12.5001 2.0166H7.50008C3.33341 2.0166 1.66675 3.68327 1.66675 7.84993V12.8499C1.66675 17.0166 3.33341 18.6833 7.50008 18.6833Z" stroke="#B5AFAF" stroke-width="1.5" stroke-linecap="round" stroke-linejoin="round"/>
</svg>
