<svg width="20" height="21" viewBox="0 0 20 21" fill="none" xmlns="http://www.w3.org/2000/svg">
<path d="M14.1667 15.7083H10.8334L7.12502 18.175C6.99987 18.2584 6.85442 18.3063 6.70419 18.3136C6.55395 18.3208 6.40457 18.2871 6.27198 18.2161C6.13939 18.1451 6.02855 18.0395 5.95131 17.9104C5.87406 17.7813 5.83329 17.6337 5.83335 17.4833V15.7083C3.33335 15.7083 1.66669 14.0417 1.66669 11.5417V6.54167C1.66669 4.04167 3.33335 2.375 5.83335 2.375H14.1667C16.6667 2.375 18.3334 4.04167 18.3334 6.54167V11.5417C18.3334 14.0417 16.6667 15.7083 14.1667 15.7083Z" stroke="#B5AFAF" stroke-width="1.5" stroke-miterlimit="10" stroke-linecap="round" stroke-linejoin="round"/>
<path d="M9.99997 9.81689V9.64189C9.99997 9.07523 10.35 8.77523 10.7 8.53356C11.0416 8.30023 11.3833 8.00023 11.3833 7.45023C11.3833 6.68356 10.7666 6.06689 9.99997 6.06689C9.2333 6.06689 8.61664 6.68356 8.61664 7.45023M9.9958 11.8086H10.0041" stroke="#B5AFAF" stroke-width="1.5" stroke-linecap="round" stroke-linejoin="round"/>
</svg>
