<svg width="20" height="21" viewBox="0 0 20 21" fill="none" xmlns="http://www.w3.org/2000/svg">
<path d="M10.8917 13.1084L9.12508 11.3501M10.8751 11.3668L9.10841 13.1334M10.0001 15.5168C10.8841 15.5168 11.732 15.1656 12.3571 14.5405C12.9822 13.9153 13.3334 13.0675 13.3334 12.1834C13.3334 11.2994 12.9822 10.4515 12.3571 9.82641C11.732 9.20129 10.8841 8.8501 10.0001 8.8501C9.11603 8.8501 8.26818 9.20129 7.64306 9.82641C7.01794 10.4515 6.66675 11.2994 6.66675 12.1834C6.66675 13.0675 7.01794 13.9153 7.64306 14.5405C8.26818 15.1656 9.11603 15.5168 10.0001 15.5168Z" stroke="#B5AFAF" stroke-width="1.5" stroke-miterlimit="10" stroke-linecap="round" stroke-linejoin="round"/>
<path d="M6.6666 5.34993V4.68327C6.6666 3.20827 6.6666 2.0166 9.33327 2.0166H10.6666C13.3333 2.0166 13.3333 3.20827 13.3333 4.68327V5.34993M6.6666 18.6833H13.3333C16.6833 18.6833 17.2833 17.3416 17.4583 15.7083L18.0833 9.0416C18.3083 7.00827 17.7249 5.34993 14.1666 5.34993H5.83327C2.27494 5.34993 1.6916 7.00827 1.9166 9.0416L2.5416 15.7083C2.7166 17.3416 3.3166 18.6833 6.6666 18.6833Z" stroke="#B5AFAF" stroke-width="1.5" stroke-miterlimit="10" stroke-linecap="round" stroke-linejoin="round"/>
<path d="M18.0417 9.5166C16.6306 10.5445 15.0349 11.2914 13.3417 11.7166M2.18335 9.7416C3.57502 10.6916 5.09168 11.3666 6.66668 11.7499" stroke="#B5AFAF" stroke-width="1.5" stroke-miterlimit="10" stroke-linecap="round" stroke-linejoin="round"/>
</svg>
