<svg width="16" height="12" viewBox="0 0 16 12" fill="none" xmlns="http://www.w3.org/2000/svg">
<path d="M1.61341 6.47545C1.52262 6.33169 1.47723 6.25981 1.45182 6.14894C1.43273 6.06566 1.43273 5.93433 1.45182 5.85105C1.47723 5.74018 1.52262 5.6683 1.61341 5.52454C2.36369 4.33656 4.59693 1.33333 8.00027 1.33333C11.4036 1.33333 13.6369 4.33655 14.3871 5.52454C14.4779 5.6683 14.5233 5.74018 14.5487 5.85105C14.5678 5.93433 14.5678 6.06566 14.5487 6.14894C14.5233 6.25981 14.4779 6.33169 14.3871 6.47545C13.6369 7.66343 11.4036 10.6667 8.00027 10.6667C4.59693 10.6667 2.36369 7.66343 1.61341 6.47545Z" stroke="#A1A1A1" stroke-width="1.2" stroke-linecap="round" stroke-linejoin="round"/>
<path d="M8.00027 7.99999C9.10484 7.99999 10.0003 7.10456 10.0003 5.99999C10.0003 4.89543 9.10484 3.99999 8.00027 3.99999C6.8957 3.99999 6.00027 4.89543 6.00027 5.99999C6.00027 7.10456 6.8957 7.99999 8.00027 7.99999Z" stroke="#A1A1A1" stroke-width="1.2" stroke-linecap="round" stroke-linejoin="round"/>
</svg>
